<svg id="Layer_1" data-name="Layer 1" xmlns="http://www.w3.org/2000/svg" viewBox="0 0 327.99 61.73"><defs><style>.cls-1{fill:#333;}</style></defs><title>logo</title><path class="cls-1" d="M12.17,62.51H33.35a12,12,0,0,1,0-1.6,25.82,25.82,0,0,1,.78-4.12,10.65,10.65,0,0,1,6.49-6.57c.68-.28.81-.61.78-1.38a18.15,18.15,0,0,1,.32-4.42,8.49,8.49,0,0,1,2.7-5c-.1.83-.19,1.38-.22,1.94s0,1.15,0,1.73C44.19,50.71,47,57,53.06,61.6a3.38,3.38,0,0,0,1.8.61c3.06.07,6.11.06,9.17.07.52,0,1-.06,1.83-.11a11.35,11.35,0,0,1-1.32-2,7.71,7.71,0,0,1,1.32-8.44c3.62-4,9.16-2.86,11.1.9a9.8,9.8,0,0,1,.37,7.69,10.63,10.63,0,0,1-1.06,1.84c3.68,0,7.06-.08,10.44,0a4.28,4.28,0,0,0,3.85-1.75,55.71,55.71,0,0,0,10-19.21,9,9,0,0,0-3.68-9.91C93,28.71,89,29.17,85.07,30.92A49.34,49.34,0,0,1,70.3,35.31a15.1,15.1,0,0,1-7.52-1.24,12.62,12.62,0,0,0,1.5-2.45c.74-2.27-.38-4.13-2.84-4.71-3.16-.75-6.3-2.18-9.73-.84,2.76-3,7.11-3.84,9.46-7.23a3.09,3.09,0,0,1-1.24-3.92c1-2.1,2.31-2.51,5.07-1.59a25,25,0,0,0,2-3.54A31.69,31.69,0,0,0,68.27,4.7,2.24,2.24,0,0,0,67,2.12c-.62-.23-1.55.36-2.33.62a2.91,2.91,0,0,0-.61.42c1.82.81,2.52,2.27,2,3.6-.74-.65-1.54-1.43-2.43-2.1a19.66,19.66,0,0,0-9.79-3.5A53.94,53.94,0,0,0,32.28,3,40.36,40.36,0,0,0,20.06,8.5C12.75,13.63,7.11,20.08,4,28.55,1.21,36.06,1.87,43.07,7.11,49.38a37.78,37.78,0,0,0,2.68,2.69l.31-.17c-2.33-4.78-1.32-9.14,1.55-13.59C17.24,46.42,18,54.37,12.17,62.51Zm89.62-51.79c1.14-3.94-.36-6.32-3.69-7A15.83,15.83,0,0,0,86.17,6.21,45.2,45.2,0,0,0,72,20.54a15.62,15.62,0,0,0-2.52,6.81,43.52,43.52,0,0,0,10.78-3.23c-1.92-1-2.55-2.54-1.92-4.21a3.18,3.18,0,0,1,3.56-1.82,3.81,3.81,0,0,1,2,1.28,11.45,11.45,0,0,1,1,2.88l3.06-1.32c4.12-1.75,8.25-2.18,12.23.26a36,36,0,0,1,4,3.4,43.19,43.19,0,0,0-.36-5.7c-.8-4.27-3.47-7.29-7-9.63-.59-.39-1.14-.86-1.7-1.29a17.47,17.47,0,0,1,2-1.33,2.49,2.49,0,0,1,3.59,1.11A20.93,20.93,0,0,1,101.79,10.72Z" transform="translate(-2.37 -0.78)"/><path class="cls-1" d="M12.17,62.51c5.78-8.14,5.07-16.09-.52-24.2C8.78,42.76,7.77,47.12,10.1,51.9l-.31.17a37.78,37.78,0,0,1-2.68-2.69C1.87,43.07,1.21,36.06,4,28.55c3.12-8.47,8.76-14.92,16.07-20A40.36,40.36,0,0,1,32.28,3,53.94,53.94,0,0,1,53.86,1.16a19.66,19.66,0,0,1,9.79,3.5c.89.67,1.69,1.45,2.43,2.1.47-1.33-.23-2.79-2-3.6a2.91,2.91,0,0,1,.61-.42c.78-.26,1.71-.85,2.33-.62a2.24,2.24,0,0,1,1.3,2.58A31.69,31.69,0,0,1,67,9.79a25,25,0,0,1-2,3.54c-2.76-.92-4-.51-5.07,1.59a3.09,3.09,0,0,0,1.24,3.92c-2.35,3.39-6.7,4.26-9.46,7.23,3.43-1.34,6.57.09,9.73.84,2.46.58,3.58,2.44,2.84,4.71a12.62,12.62,0,0,1-1.5,2.45,15.1,15.1,0,0,0,7.52,1.24,49.34,49.34,0,0,0,14.77-4.39c4-1.75,8-2.21,11.79.4a9,9,0,0,1,3.68,9.91,55.71,55.71,0,0,1-10,19.21,4.28,4.28,0,0,1-3.85,1.75c-3.38-.11-6.76,0-10.44,0a10.63,10.63,0,0,0,1.06-1.84A9.8,9.8,0,0,0,77,52.63c-1.94-3.76-7.48-4.94-11.1-.9a7.71,7.71,0,0,0-1.32,8.44,11.35,11.35,0,0,0,1.32,2c-.78,0-1.31.11-1.83.11-3.06,0-6.11,0-9.17-.07a3.38,3.38,0,0,1-1.8-.61C47,57,44.19,50.71,44.2,43.13c0-.58,0-1.16,0-1.73s.12-1.11.22-1.94a8.49,8.49,0,0,0-2.7,5,18.15,18.15,0,0,0-.32,4.42c0,.77-.1,1.1-.78,1.38a10.65,10.65,0,0,0-6.49,6.57,25.82,25.82,0,0,0-.78,4.12,12,12,0,0,0,0,1.6Z" transform="translate(-2.37 -0.78)"/><path class="cls-1" d="M101.79,10.72a20.93,20.93,0,0,0-1.1-3A2.49,2.49,0,0,0,97.1,6.64a17.47,17.47,0,0,0-2,1.33c.56.43,1.11.9,1.7,1.29,3.55,2.34,6.22,5.36,7,9.63a43.19,43.19,0,0,1,.36,5.7,36,36,0,0,0-4-3.4c-4-2.44-8.11-2-12.23-.26l-3.06,1.32a11.45,11.45,0,0,0-1-2.88,3.81,3.81,0,0,0-2-1.28,3.18,3.18,0,0,0-3.56,1.82c-.63,1.67,0,3.17,1.92,4.21a43.52,43.52,0,0,1-10.78,3.23A15.62,15.62,0,0,1,72,20.54,45.2,45.2,0,0,1,86.17,6.21,15.83,15.83,0,0,1,98.1,3.72C101.43,4.4,102.93,6.78,101.79,10.72Z" transform="translate(-2.37 -0.78)"/><path class="cls-1" d="M129.79,24.75h17.37a7.45,7.45,0,0,1,7.89,7.89,6.16,6.16,0,0,1-2.37,5,6,6,0,0,1,3.42,5.58,7.45,7.45,0,0,1-7.89,7.89H129.79Zm17.37,10.79a2.5,2.5,0,0,0,2.63-2.64v-.79a2.49,2.49,0,0,0-2.63-2.63H135.05v6.06ZM135.05,46.32h13.16a2.48,2.48,0,0,0,2.63-2.63V42.9a2.48,2.48,0,0,0-2.63-2.63H135.05Z" transform="translate(-2.37 -0.78)"/><path class="cls-1" d="M161.92,51.06l10.79-26.31h7.9l10.78,26.31h-5.68l-2.16-5.26H169.66l-2.16,5.26Zm19.69-10-4.74-11.58h-.53l-4.73,11.58Z" transform="translate(-2.37 -0.78)"/><path class="cls-1" d="M225.64,37.9c0,7.58-5.79,13.16-13.68,13.16H198.8V24.75H212C219.85,24.75,225.64,30.27,225.64,37.9Zm-21.58,8.42H212c4.73,0,8.15-3.52,8.15-8.42A8,8,0,0,0,212,29.48h-7.9Z" transform="translate(-2.37 -0.78)"/><path class="cls-1" d="M246.61,40.53V35.8h13.52a13,13,0,0,1,.16,2.1,13.69,13.69,0,1,1-27.37,0,13.28,13.28,0,0,1,13.69-13.68,13.65,13.65,0,0,1,9.79,3.84l-3.74,3.79a8,8,0,0,0-6-2.63c-4.74,0-8.16,3.68-8.16,8.68s3.42,8.69,8.16,8.69a8,8,0,0,0,7.84-6.06Z" transform="translate(-2.37 -0.78)"/><path class="cls-1" d="M274.05,29.48v6.06h15.26v4.73H274.05v6h20.53v4.74H268.79V24.75h25.79v4.73Z" transform="translate(-2.37 -0.78)"/><path class="cls-1" d="M303.52,24.75h18.94c4.74,0,7.9,3.15,7.9,7.89a7.28,7.28,0,0,1-6.9,7.58,8.48,8.48,0,0,1,1,1.26l5.95,9.58h-5.95l-6.68-10.79h-9V51.06h-5.26Zm18.94,10.79a2.5,2.5,0,0,0,2.64-2.64v-.79a2.5,2.5,0,0,0-2.64-2.63H308.78v6.06Z" transform="translate(-2.37 -0.78)"/></svg>